<?xml version="1.0" standalone="yes"?>

<svg version="1.1" viewBox="0.0 0.0 1024.0 768.0" fill="none" stroke="none" stroke-linecap="square" stroke-miterlimit="10" xmlns="http://www.w3.org/2000/svg" xmlns:xlink="http://www.w3.org/1999/xlink"><clipPath id="p.0"><path d="m0 0l1024.0 0l0 768.0l-1024.0 0l0 -768.0z" clip-rule="nonzero"></path></clipPath><g clip-path="url(#p.0)"><path fill="#000000" fill-opacity="0.0" d="m0 0l1024.0 0l0 768.0l-1024.0 0z" fill-rule="nonzero"></path><path fill="#cfe2f3" d="m502.44882 347.12466l0 0c0 -41.14737 35.365997 -74.50394 78.992096 -74.50394l0 0c20.950012 0 41.041992 7.849518 55.855896 21.821716c14.813904 13.9721985 23.13623 32.922546 23.13623 52.68222l0 0c0 41.1474 -35.365967 74.50394 -78.99213 74.50394l0 0c-43.6261 0 -78.992096 -33.356537 -78.992096 -74.50394z" fill-rule="nonzero"></path><path stroke="#000000" stroke-width="2.0" stroke-linejoin="round" stroke-linecap="butt" d="m502.44882 347.12466l0 0c0 -41.14737 35.365997 -74.50394 78.992096 -74.50394l0 0c20.950012 0 41.041992 7.849518 55.855896 21.821716c14.813904 13.9721985 23.13623 32.922546 23.13623 52.68222l0 0c0 41.1474 -35.365967 74.50394 -78.99213 74.50394l0 0c-43.6261 0 -78.992096 -33.356537 -78.992096 -74.50394z" fill-rule="nonzero"></path><path fill="#000000" d="m572.5054 361.52466l0 -28.640625l19.3125 0l0 3.390625l-15.515625 0l0 8.859375l13.4375 0l0 3.375l-13.4375 0l0 13.015625l-3.796875 0z" fill-rule="nonzero"></path><path fill="#cfe2f3" d="m518.4475 146.66142l0 0c0 -41.147392 35.365967 -74.503944 78.99213 -74.503944l0 0c20.950012 0 41.041992 7.8495026 55.855835 21.821701c14.813904 13.9721985 23.136292 32.92256 23.136292 52.682243l0 0c0 41.147385 -35.365967 74.50394 -78.99213 74.50394l0 0c-43.62616 0 -78.99213 -33.356552 -78.99213 -74.50394z" fill-rule="nonzero"></path><path stroke="#000000" stroke-width="2.0" stroke-linejoin="round" stroke-linecap="butt" d="m518.4475 146.66142l0 0c0 -41.147392 35.365967 -74.503944 78.99213 -74.503944l0 0c20.950012 0 41.041992 7.8495026 55.855835 21.821701c14.813904 13.9721985 23.136292 32.92256 23.136292 52.682243l0 0c0 41.147385 -35.365967 74.50394 -78.99213 74.50394l0 0c-43.62616 0 -78.99213 -33.356552 -78.99213 -74.50394z" fill-rule="nonzero"></path><path fill="#000000" d="m587.27167 161.06142l0 -28.640625l20.703125 0l0 3.390625l-16.921875 0l0 8.765625l15.84375 0l0 3.359375l-15.84375 0l0 9.75l17.578125 0l0 3.375l-21.359375 0z" fill-rule="nonzero"></path><path fill="#cfe2f3" d="m71.2336 232.7979l0 0c0 -41.147385 35.365982 -74.50394 78.99213 -74.50394l0 0c20.950012 0 41.04196 7.8495026 55.855865 21.821701c14.813904 13.9721985 23.136261 32.92256 23.136261 52.682236l0 0c0 41.147385 -35.365982 74.50395 -78.99213 74.50395l0 0c-43.626144 0 -78.99213 -33.356567 -78.99213 -74.50395z" fill-rule="nonzero"></path><path stroke="#000000" stroke-width="2.0" stroke-linejoin="round" stroke-linecap="butt" d="m71.2336 232.7979l0 0c0 -41.147385 35.365982 -74.50394 78.99213 -74.50394l0 0c20.950012 0 41.04196 7.8495026 55.855865 21.821701c14.813904 13.9721985 23.136261 32.92256 23.136261 52.682236l0 0c0 41.147385 -35.365982 74.50395 -78.99213 74.50395l0 0c-43.626144 0 -78.99213 -33.356567 -78.99213 -74.50395z" fill-rule="nonzero"></path><path fill="#000000" d="m159.29799 237.15102l3.796875 0.96875q-1.203125 4.65625 -4.296875 7.109375q-3.09375 2.453125 -7.5625 2.453125q-4.625 0 -7.53125 -1.875q-2.90625 -1.890625 -4.421875 -5.46875q-1.5 -3.578125 -1.5 -7.671875q0 -4.46875 1.703125 -7.796875q1.703125 -3.34375 4.859375 -5.0625q3.15625 -1.734375 6.953125 -1.734375q4.296875 0 7.21875 2.1875q2.9375 2.1875 4.078125 6.15625l-3.71875 0.875q-1.0 -3.125 -2.90625 -4.546875q-1.890625 -1.421875 -4.75 -1.421875q-3.3125 0 -5.53125 1.578125q-2.203125 1.578125 -3.109375 4.25q-0.890625 2.65625 -0.890625 5.5q0 3.640625 1.0625 6.375q1.0625 2.71875 3.296875 4.078125q2.25 1.34375 4.875 1.34375q3.1875 0 5.390625 -1.828125q2.203125 -1.84375 2.984375 -5.46875z" fill-rule="nonzero"></path><path fill="#cfe2f3" d="m255.98294 423.66797l0 0c0 -41.14737 35.365967 -74.50394 78.99213 -74.50394l0 0c20.950012 0 41.04196 7.849518 55.855865 21.821716c14.813904 13.9721985 23.136261 32.922546 23.136261 52.68222l0 0c0 41.1474 -35.365967 74.50394 -78.99213 74.50394l0 0c-43.62616 0 -78.99213 -33.356537 -78.99213 -74.50394z" fill-rule="nonzero"></path><path stroke="#000000" stroke-width="2.0" stroke-linejoin="round" stroke-linecap="butt" d="m255.98294 423.66797l0 0c0 -41.14737 35.365967 -74.50394 78.99213 -74.50394l0 0c20.950012 0 41.04196 7.849518 55.855865 21.821716c14.813904 13.9721985 23.136261 32.922546 23.136261 52.68222l0 0c0 41.1474 -35.365967 74.50394 -78.99213 74.50394l0 0c-43.62616 0 -78.99213 -33.356537 -78.99213 -74.50394z" fill-rule="nonzero"></path><path fill="#000000" d="m323.62546 438.06796l0 -28.640625l9.859375 0q3.34375 0 5.09375 0.421875q2.46875 0.5625 4.203125 2.046875q2.265625 1.90625 3.390625 4.890625q1.125 2.984375 1.125 6.8125q0 3.25 -0.765625 5.78125q-0.765625 2.515625 -1.953125 4.171875q-1.1875 1.640625 -2.609375 2.59375q-1.421875 0.9375 -3.421875 1.4375q-2.0 0.484375 -4.59375 0.484375l-10.328125 0zm3.78125 -3.375l6.109375 0q2.84375 0 4.453125 -0.53125q1.609375 -0.53125 2.5625 -1.484375q1.34375 -1.34375 2.09375 -3.625q0.765625 -2.28125 0.765625 -5.515625q0 -4.5 -1.484375 -6.90625q-1.46875 -2.40625 -3.578125 -3.234375q-1.53125 -0.578125 -4.90625 -0.578125l-6.015625 0l0 21.875z" fill-rule="nonzero"></path><path fill="#000000" fill-opacity="0.0" d="m229.21785 232.7979l296.36725 61.644547" fill-rule="nonzero"></path><path stroke="#000000" stroke-width="2.0" stroke-linejoin="round" stroke-linecap="butt" d="m229.21785 232.7979l284.6187 59.20082" fill-rule="evenodd"></path><path fill="#000000" stroke="#000000" stroke-width="2.0" stroke-linecap="butt" d="m513.1638 295.23297l9.558716 -1.3859253l-8.213257 -5.08255z" fill-rule="evenodd"></path><path fill="#000000" fill-opacity="0.0" d="m206.08159 285.48013l128.89348 63.6839" fill-rule="nonzero"></path><path stroke="#000000" stroke-width="2.0" stroke-linejoin="round" stroke-linecap="butt" d="m206.08159 285.48013l118.134995 58.368347" fill-rule="evenodd"></path><path fill="#000000" stroke="#000000" stroke-width="2.0" stroke-linecap="butt" d="m322.75327 346.81015l9.600494 1.0587463l-6.6738586 -6.9821167z" fill-rule="evenodd"></path><path fill="#000000" fill-opacity="0.0" d="m229.21785 232.7979l289.22968 -86.136475" fill-rule="nonzero"></path><path stroke="#000000" stroke-width="2.0" stroke-linejoin="round" stroke-linecap="butt" d="m229.21785 232.7979l277.72882 -82.71138" fill-rule="evenodd"></path><path fill="#000000" stroke="#000000" stroke-width="2.0" stroke-linecap="butt" d="m507.8896 153.25256l7.7557373 -5.7566223l-9.64151 -0.57547z" fill-rule="evenodd"></path></g></svg>

