<?xml version="1.0" standalone="yes"?>

<svg version="1.1" viewBox="0.0 0.0 1024.0 768.0" fill="none" stroke="none" stroke-linecap="square" stroke-miterlimit="10" xmlns="http://www.w3.org/2000/svg" xmlns:xlink="http://www.w3.org/1999/xlink"><clipPath id="p.0"><path d="m0 0l1024.0 0l0 768.0l-1024.0 0l0 -768.0z" clip-rule="nonzero"></path></clipPath><g clip-path="url(#p.0)"><path fill="#000000" fill-opacity="0.0" d="m0 0l1024.0 0l0 768.0l-1024.0 0z" fill-rule="nonzero"></path><path fill="#cfe2f3" d="m544.8123 83.53018l0 0c0 -41.147385 35.366028 -74.50394 78.99213 -74.50394l0 0c20.950012 0 41.041992 7.8494987 55.855896 21.821697c14.813904 13.9722 23.13623 32.92257 23.13623 52.682236l0 0c0 41.147392 -35.365967 74.50394 -78.99213 74.50394l0 0c-43.6261 0 -78.99213 -33.356544 -78.99213 -74.50394z" fill-rule="nonzero"></path><path stroke="#000000" stroke-width="2.0" stroke-linejoin="round" stroke-linecap="butt" d="m544.8123 83.53018l0 0c0 -41.147385 35.366028 -74.50394 78.99213 -74.50394l0 0c20.950012 0 41.041992 7.8494987 55.855896 21.821697c14.813904 13.9722 23.13623 32.92257 23.13623 52.682236l0 0c0 41.147392 -35.365967 74.50394 -78.99213 74.50394l0 0c-43.6261 0 -78.99213 -33.356544 -78.99213 -74.50394z" fill-rule="nonzero"></path><path fill="#000000" d="m621.9822 97.93018l0 -28.640625l3.78125 0l0 28.640625l-3.78125 0z" fill-rule="nonzero"></path><path fill="#cfe2f3" d="m795.7113 95.797905l0 0c0 -41.147392 35.365967 -74.503944 78.99213 -74.503944l0 0c20.950012 0 41.04193 7.8495007 55.855835 21.8217c14.813904 13.9721985 23.136292 32.92257 23.136292 52.682243l0 0c0 41.147392 -35.365967 74.50393 -78.99213 74.50393l0 0c-43.62616 0 -78.99213 -33.356537 -78.99213 -74.50393z" fill-rule="nonzero"></path><path stroke="#000000" stroke-width="2.0" stroke-linejoin="round" stroke-linecap="butt" d="m795.7113 95.797905l0 0c0 -41.147392 35.365967 -74.503944 78.99213 -74.503944l0 0c20.950012 0 41.04193 7.8495007 55.855835 21.8217c14.813904 13.9721985 23.136292 32.92257 23.136292 52.682243l0 0c0 41.147392 -35.365967 74.50393 -78.99213 74.50393l0 0c-43.62616 0 -78.99213 -33.356537 -78.99213 -74.50393z" fill-rule="nonzero"></path><path fill="#000000" d="m866.5179 110.1979l0 -28.640625l3.78125 0l0 25.265625l14.109375 0l0 3.375l-17.890625 0z" fill-rule="nonzero"></path><path fill="#cfe2f3" d="m16.532808 399.05905l0 0c0 -41.14737 35.365982 -74.50394 78.99213 -74.50394l0 0c20.950012 0 41.041977 7.849518 55.855865 21.821716c14.813904 13.9721985 23.136261 32.922546 23.136261 52.68222l0 0c0 41.1474 -35.365982 74.50394 -78.99213 74.50394l0 0c-43.626144 0 -78.99213 -33.356537 -78.99213 -74.50394z" fill-rule="nonzero"></path><path stroke="#000000" stroke-width="2.0" stroke-linejoin="round" stroke-linecap="butt" d="m16.532808 399.05905l0 0c0 -41.14737 35.365982 -74.50394 78.99213 -74.50394l0 0c20.950012 0 41.041977 7.849518 55.855865 21.821716c14.813904 13.9721985 23.136261 32.922546 23.136261 52.68222l0 0c0 41.1474 -35.365982 74.50394 -78.99213 74.50394l0 0c-43.626144 0 -78.99213 -33.356537 -78.99213 -74.50394z" fill-rule="nonzero"></path><path fill="#000000" d="m82.12259 413.45905l11.0 -28.640625l4.078125 0l11.71875 28.640625l-4.3125 0l-3.34375 -8.671875l-11.96875 0l-3.140625 8.671875l-4.03125 0zm8.265625 -11.765625l9.703125 0l-2.984375 -7.921875q-1.359375 -3.609375 -2.03125 -5.9375q-0.546875 2.75 -1.546875 5.46875l-3.140625 8.390625z" fill-rule="nonzero"></path><path fill="#cfe2f3" d="m84.51706 656.6352l0 0c0 -41.1474 35.365982 -74.50397 78.99213 -74.50397l0 0c20.950012 0 41.041977 7.8494873 55.855865 21.821716c14.813904 13.972168 23.136261 32.922546 23.136261 52.68225l0 0c0 41.14734 -35.365982 74.50391 -78.99213 74.50391l0 0c-43.626144 0 -78.99213 -33.356567 -78.99213 -74.50391z" fill-rule="nonzero"></path><path stroke="#000000" stroke-width="2.0" stroke-linejoin="round" stroke-linecap="butt" d="m84.51706 656.6352l0 0c0 -41.1474 35.365982 -74.50397 78.99213 -74.50397l0 0c20.950012 0 41.041977 7.8494873 55.855865 21.821716c14.813904 13.972168 23.136261 32.922546 23.136261 52.68225l0 0c0 41.14734 -35.365982 74.50391 -78.99213 74.50391l0 0c-43.626144 0 -78.99213 -33.356567 -78.99213 -74.50391z" fill-rule="nonzero"></path><path fill="#000000" d="m153.10684 671.03516l0 -28.640625l10.734375 0q3.28125 0 5.265625 0.875q1.984375 0.875 3.109375 2.6875q1.125 1.796875 1.125 3.765625q0 1.84375 -1.0 3.46875q-1.0 1.609375 -3.015625 2.609375q2.609375 0.765625 4.0 2.609375q1.390625 1.828125 1.390625 4.328125q0 2.0 -0.84375 3.734375q-0.84375 1.734375 -2.09375 2.671875q-1.25 0.9375 -3.140625 1.421875q-1.890625 0.46875 -4.625 0.46875l-10.90625 0zm3.78125 -16.609375l6.1875 0q2.53125 0 3.625 -0.328125q1.4375 -0.421875 2.171875 -1.421875q0.734375 -1.0 0.734375 -2.5q0 -1.421875 -0.6875 -2.5q-0.6875 -1.09375 -1.953125 -1.484375q-1.265625 -0.40625 -4.359375 -0.40625l-5.71875 0l0 8.640625zm0 13.234375l7.125 0q1.84375 0 2.578125 -0.140625q1.3125 -0.234375 2.1875 -0.78125q0.890625 -0.546875 1.453125 -1.59375q0.5625 -1.046875 0.5625 -2.40625q0 -1.609375 -0.828125 -2.78125q-0.8125 -1.1875 -2.265625 -1.65625q-1.453125 -0.484375 -4.1875 -0.484375l-6.625 0l0 9.84375z" fill-rule="nonzero"></path><path fill="#cfe2f3" d="m336.44882 286.12466l0 0c0 -41.147385 35.365967 -74.50394 78.99213 -74.50394l0 0c20.950012 0 41.04196 7.8495026 55.855865 21.821701c14.813904 13.9721985 23.136261 32.92256 23.136261 52.682236l0 0c0 41.1474 -35.365967 74.50394 -78.99213 74.50394l0 0c-43.62616 0 -78.99213 -33.356537 -78.99213 -74.50394z" fill-rule="nonzero"></path><path stroke="#000000" stroke-width="2.0" stroke-linejoin="round" stroke-linecap="butt" d="m336.44882 286.12466l0 0c0 -41.147385 35.365967 -74.50394 78.99213 -74.50394l0 0c20.950012 0 41.04196 7.8495026 55.855865 21.821701c14.813904 13.9721985 23.136261 32.92256 23.136261 52.682236l0 0c0 41.1474 -35.365967 74.50394 -78.99213 74.50394l0 0c-43.62616 0 -78.99213 -33.356537 -78.99213 -74.50394z" fill-rule="nonzero"></path><path fill="#000000" d="m406.5054 300.52466l0 -28.640625l19.3125 0l0 3.390625l-15.515625 0l0 8.859375l13.4375 0l0 3.375l-13.4375 0l0 13.015625l-3.796875 0z" fill-rule="nonzero"></path><path fill="#cfe2f3" d="m455.6299 656.6352l0 0c0 -41.1474 35.365997 -74.50397 78.99216 -74.50397l0 0c20.950012 0 41.04193 7.8494873 55.855835 21.821716c14.813904 13.972168 23.136292 32.922546 23.136292 52.68225l0 0c0 41.14734 -35.365967 74.50391 -78.99213 74.50391l0 0c-43.62616 0 -78.99216 -33.356567 -78.99216 -74.50391z" fill-rule="nonzero"></path><path stroke="#000000" stroke-width="2.0" stroke-linejoin="round" stroke-linecap="butt" d="m455.6299 656.6352l0 0c0 -41.1474 35.365997 -74.50397 78.99216 -74.50397l0 0c20.950012 0 41.04193 7.8494873 55.855835 21.821716c14.813904 13.972168 23.136292 32.922546 23.136292 52.68225l0 0c0 41.14734 -35.365967 74.50391 -78.99213 74.50391l0 0c-43.62616 0 -78.99216 -33.356567 -78.99216 -74.50391z" fill-rule="nonzero"></path><path fill="#000000" d="m523.38184 671.03516l0 -28.640625l3.796875 0l0 11.765625l14.875 0l0 -11.765625l3.796875 0l0 28.640625l-3.796875 0l0 -13.5l-14.875 0l0 13.5l-3.796875 0z" fill-rule="nonzero"></path><path fill="#cfe2f3" d="m336.4475 89.66404l0 0c0 -41.147385 35.365967 -74.50394 78.99213 -74.50394l0 0c20.950012 0 41.04196 7.8495007 55.855865 21.8217c14.813904 13.9721985 23.136261 32.92257 23.136261 52.682236l0 0c0 41.147392 -35.365967 74.503944 -78.99213 74.503944l0 0c-43.62616 0 -78.99213 -33.356552 -78.99213 -74.503944z" fill-rule="nonzero"></path><path stroke="#000000" stroke-width="2.0" stroke-linejoin="round" stroke-linecap="butt" d="m336.4475 89.66404l0 0c0 -41.147385 35.365967 -74.50394 78.99213 -74.50394l0 0c20.950012 0 41.04196 7.8495007 55.855865 21.8217c14.813904 13.9721985 23.136261 32.92257 23.136261 52.682236l0 0c0 41.147392 -35.365967 74.503944 -78.99213 74.503944l0 0c-43.62616 0 -78.99213 -33.356552 -78.99213 -74.503944z" fill-rule="nonzero"></path><path fill="#000000" d="m405.27167 104.06404l0 -28.640625l20.703125 0l0 3.390625l-16.921875 0l0 8.765625l15.84375 0l0 3.359375l-15.84375 0l0 9.75l17.578125 0l0 3.375l-21.359375 0z" fill-rule="nonzero"></path><path fill="#cfe2f3" d="m78.2336 95.797905l0 0c0 -41.147392 35.365982 -74.503944 78.99213 -74.503944l0 0c20.950012 0 41.041977 7.8495007 55.85588 21.8217c14.813889 13.9721985 23.136246 32.92257 23.136246 52.682243l0 0c0 41.147392 -35.365982 74.50393 -78.99213 74.50393l0 0c-43.626144 0 -78.99213 -33.356537 -78.99213 -74.50393z" fill-rule="nonzero"></path><path stroke="#000000" stroke-width="2.0" stroke-linejoin="round" stroke-linecap="butt" d="m78.2336 95.797905l0 0c0 -41.147392 35.365982 -74.503944 78.99213 -74.503944l0 0c20.950012 0 41.041977 7.8495007 55.85588 21.8217c14.813889 13.9721985 23.136246 32.92257 23.136246 52.682243l0 0c0 41.147392 -35.365982 74.50393 -78.99213 74.50393l0 0c-43.626144 0 -78.99213 -33.356537 -78.99213 -74.50393z" fill-rule="nonzero"></path><path fill="#000000" d="m166.29799 100.151024l3.796875 0.96875q-1.203125 4.65625 -4.296875 7.109375q-3.09375 2.453125 -7.5625 2.453125q-4.625 0 -7.53125 -1.875q-2.90625 -1.890625 -4.421875 -5.46875q-1.5 -3.578125 -1.5 -7.671875q0 -4.46875 1.703125 -7.796875q1.703125 -3.34375 4.859375 -5.0625q3.15625 -1.734375 6.953125 -1.734375q4.296875 0 7.21875 2.1875q2.9375 2.1875 4.078125 6.15625l-3.71875 0.875q-1.0 -3.125 -2.90625 -4.546875q-1.890625 -1.421875 -4.75 -1.421875q-3.3125 0 -5.53125 1.578125q-2.203125 1.578125 -3.109375 4.25q-0.890625 2.65625 -0.890625 5.5q0 3.640625 1.0625 6.375q1.0625 2.71875 3.296875 4.078125q2.25 1.34375 4.875 1.34375q3.1875 0 5.390625 -1.828125q2.203125 -1.84375 2.984375 -5.46875z" fill-rule="nonzero"></path><path fill="#cfe2f3" d="m336.4475 488.63254l0 0c0 -41.14737 35.365967 -74.50394 78.99213 -74.50394l0 0c20.950012 0 41.04196 7.849518 55.855865 21.821716c14.813904 13.9721985 23.136261 32.922546 23.136261 52.68222l0 0c0 41.14737 -35.365967 74.50394 -78.99213 74.50394l0 0c-43.62616 0 -78.99213 -33.356567 -78.99213 -74.50394z" fill-rule="nonzero"></path><path stroke="#000000" stroke-width="2.0" stroke-linejoin="round" stroke-linecap="butt" d="m336.4475 488.63254l0 0c0 -41.14737 35.365967 -74.50394 78.99213 -74.50394l0 0c20.950012 0 41.04196 7.849518 55.855865 21.821716c14.813904 13.9721985 23.136261 32.922546 23.136261 52.68222l0 0c0 41.14737 -35.365967 74.50394 -78.99213 74.50394l0 0c-43.62616 0 -78.99213 -33.356567 -78.99213 -74.50394z" fill-rule="nonzero"></path><path fill="#000000" d="m416.36737 491.79816l0 -3.359375l12.125 -0.015625l0 10.625q-2.78125 2.21875 -5.75 3.34375q-2.96875 1.125 -6.09375 1.125q-4.21875 0 -7.671875 -1.796875q-3.453125 -1.8125 -5.21875 -5.234375q-1.75 -3.421875 -1.75 -7.640625q0 -4.171875 1.75 -7.796875q1.75 -3.625 5.03125 -5.375q3.28125 -1.765625 7.5625 -1.765625q3.109375 0 5.609375 1.015625q2.515625 1.0 3.9375 2.796875q1.421875 1.796875 2.171875 4.6875l-3.421875 0.9375q-0.640625 -2.1875 -1.609375 -3.4375q-0.953125 -1.25 -2.734375 -2.0q-1.765625 -0.75 -3.9375 -0.75q-2.59375 0 -4.5 0.796875q-1.890625 0.78125 -3.046875 2.078125q-1.15625 1.28125 -1.8125 2.828125q-1.09375 2.65625 -1.09375 5.75q0 3.828125 1.3125 6.40625q1.328125 2.578125 3.84375 3.828125q2.53125 1.25 5.359375 1.25q2.453125 0 4.796875 -0.9375q2.34375 -0.953125 3.5625 -2.03125l0 -5.328125l-8.421875 0z" fill-rule="nonzero"></path><path fill="#cfe2f3" d="m767.2677 587.67584l0 0c0 -41.1474 35.366028 -74.50391 78.99213 -74.50391l0 0c20.950012 0 41.041992 7.8494873 55.855896 21.821655c14.813904 13.972229 23.13623 32.922607 23.13623 52.68225l0 0c0 41.1474 -35.365967 74.50397 -78.99213 74.50397l0 0c-43.6261 0 -78.99213 -33.356567 -78.99213 -74.50397z" fill-rule="nonzero"></path><path stroke="#000000" stroke-width="2.0" stroke-linejoin="round" stroke-linecap="butt" d="m767.2677 587.67584l0 0c0 -41.1474 35.366028 -74.50391 78.99213 -74.50391l0 0c20.950012 0 41.041992 7.8494873 55.855896 21.821655c14.813904 13.972229 23.13623 32.922607 23.13623 52.68225l0 0c0 41.1474 -35.365967 74.50397 -78.99213 74.50397l0 0c-43.6261 0 -78.99213 -33.356567 -78.99213 -74.50397z" fill-rule="nonzero"></path><path fill="#000000" d="m834.86334 602.07587l0 -28.640625l3.890625 0l15.03125 22.484375l0 -22.484375l3.640625 0l0 28.640625l-3.890625 0l-15.03125 -22.5l0 22.5l-3.640625 0z" fill-rule="nonzero"></path><path fill="#cfe2f3" d="m813.7454 330.23624l0 0c0 -41.1474 35.365967 -74.50395 78.99213 -74.50395l0 0c20.950012 0 41.04193 7.8495026 55.855835 21.821701c14.813904 13.9721985 23.136292 32.922577 23.136292 52.68225l0 0c0 41.14737 -35.365967 74.50394 -78.99213 74.50394l0 0c-43.62616 0 -78.99213 -33.356567 -78.99213 -74.50394z" fill-rule="nonzero"></path><path stroke="#000000" stroke-width="2.0" stroke-linejoin="round" stroke-linecap="butt" d="m813.7454 330.23624l0 0c0 -41.1474 35.365967 -74.50395 78.99213 -74.50395l0 0c20.950012 0 41.04193 7.8495026 55.855835 21.821701c14.813904 13.9721985 23.136292 32.922577 23.136292 52.68225l0 0c0 41.14737 -35.365967 74.50394 -78.99213 74.50394l0 0c-43.62616 0 -78.99213 -33.356567 -78.99213 -74.50394z" fill-rule="nonzero"></path><path fill="#000000" d="m879.04614 344.63623l0 -28.640625l5.703125 0l6.78125 20.28125q0.9375 2.828125 1.359375 4.234375q0.5 -1.5625 1.53125 -4.59375l6.859375 -19.921875l5.09375 0l0 28.640625l-3.65625 0l0 -23.96875l-8.3125 23.96875l-3.421875 0l-8.28125 -24.375l0 24.375l-3.65625 0z" fill-rule="nonzero"></path><path fill="#cfe2f3" d="m157.98294 295.66797l0 0c0 -41.147385 35.365982 -74.50392 78.99213 -74.50392l0 0c20.950012 0 41.04196 7.8494873 55.855865 21.821686c14.813904 13.972214 23.136261 32.92256 23.136261 52.682236l0 0c0 41.1474 -35.365967 74.50394 -78.99213 74.50394l0 0c-43.626144 0 -78.99213 -33.356537 -78.99213 -74.50394z" fill-rule="nonzero"></path><path stroke="#000000" stroke-width="2.0" stroke-linejoin="round" stroke-linecap="butt" d="m157.98294 295.66797l0 0c0 -41.147385 35.365982 -74.50392 78.99213 -74.50392l0 0c20.950012 0 41.04196 7.8494873 55.855865 21.821686c14.813904 13.972214 23.136261 32.92256 23.136261 52.682236l0 0c0 41.1474 -35.365967 74.50394 -78.99213 74.50394l0 0c-43.626144 0 -78.99213 -33.356537 -78.99213 -74.50394z" fill-rule="nonzero"></path><path fill="#000000" d="m225.62546 310.06796l0 -28.640625l9.859375 0q3.34375 0 5.09375 0.421875q2.46875 0.5625 4.203125 2.046875q2.265625 1.90625 3.390625 4.890625q1.125 2.984375 1.125 6.8125q0 3.25 -0.765625 5.78125q-0.765625 2.515625 -1.953125 4.171875q-1.1875 1.640625 -2.609375 2.59375q-1.421875 0.9375 -3.421875 1.4375q-2.0 0.484375 -4.59375 0.484375l-10.328125 0zm3.78125 -3.375l6.109375 0q2.84375 0 4.453125 -0.53125q1.609375 -0.53125 2.5625 -1.484375q1.34375 -1.34375 2.09375 -3.625q0.765625 -2.28125 0.765625 -5.515625q0 -4.5 -1.484375 -6.90625q-1.46875 -2.40625 -3.578125 -3.234375q-1.53125 -0.578125 -4.90625 -0.578125l-6.015625 0l0 21.875z" fill-rule="nonzero"></path><path fill="#cfe2f3" d="m620.2638 261.09842l0 0c0 -41.147385 35.365967 -74.50394 78.99213 -74.50394l0 0c20.950012 0 41.041992 7.8495026 55.855835 21.821701c14.813904 13.9721985 23.136292 32.922577 23.136292 52.682236l0 0c0 41.1474 -35.365967 74.50394 -78.99213 74.50394l0 0c-43.62616 0 -78.99213 -33.356537 -78.99213 -74.50394z" fill-rule="nonzero"></path><path stroke="#000000" stroke-width="2.0" stroke-linejoin="round" stroke-linecap="butt" d="m620.2638 261.09842l0 0c0 -41.147385 35.365967 -74.50394 78.99213 -74.50394l0 0c20.950012 0 41.041992 7.8495026 55.855835 21.821701c14.813904 13.9721985 23.136292 32.922577 23.136292 52.682236l0 0c0 41.1474 -35.365967 74.50394 -78.99213 74.50394l0 0c-43.62616 0 -78.99213 -33.356537 -78.99213 -74.50394z" fill-rule="nonzero"></path><path fill="#000000" d="m688.8536 275.4984l0 -28.64061l3.78125 0l0 14.20311l14.21875 -14.20311l5.140625 0l-12.015625 11.60936l12.546875 17.03125l-5.0 0l-10.203125 -14.5l-4.6875 4.578125l0 9.921875l-3.78125 0z" fill-rule="nonzero"></path><path fill="#000000" fill-opacity="0.0" d="m702.7966 83.53018l92.914734 12.267723" fill-rule="nonzero"></path><path stroke="#000000" stroke-width="2.0" stroke-linejoin="round" stroke-linecap="butt" d="m702.7966 83.53018l81.018005 10.696968" fill-rule="evenodd"></path><path fill="#000000" stroke="#000000" stroke-width="2.0" stroke-linecap="butt" d="m783.38214 97.50219l9.430481 -2.0870056l-8.565674 -4.4630814z" fill-rule="evenodd"></path><path fill="#000000" fill-opacity="0.0" d="m679.66034 136.21242l19.595581 50.382065" fill-rule="nonzero"></path><path stroke="#000000" stroke-width="2.0" stroke-linejoin="round" stroke-linecap="butt" d="m679.66034 136.21242l15.245728 39.198196" fill-rule="evenodd"></path><path fill="#000000" stroke="#000000" stroke-width="2.0" stroke-linecap="butt" d="m691.8273 176.60808l6.3687744 7.2614594l-0.21118164 -9.656372z" fill-rule="evenodd"></path><path fill="#000000" fill-opacity="0.0" d="m174.51706 399.05905l161.93045 89.57349" fill-rule="nonzero"></path><path stroke="#000000" stroke-width="2.0" stroke-linejoin="round" stroke-linecap="butt" d="m174.51706 399.05905l151.4299 83.765015" fill-rule="evenodd"></path><path fill="#000000" stroke="#000000" stroke-width="2.0" stroke-linecap="butt" d="m324.34796 485.71475l9.541077 1.5025635l-6.3430786 -7.2839355z" fill-rule="evenodd"></path><path fill="#000000" fill-opacity="0.0" d="m151.3808 451.7413l304.2491 204.89389" fill-rule="nonzero"></path><path stroke="#000000" stroke-width="2.0" stroke-linejoin="round" stroke-linecap="butt" d="m151.3808 451.7413l294.29575 198.19089" fill-rule="evenodd"></path><path fill="#000000" stroke="#000000" stroke-width="2.0" stroke-linecap="butt" d="m443.8313 652.67224l9.373474 2.329712l-5.682953 -7.8098145z" fill-rule="evenodd"></path><path fill="#000000" fill-opacity="0.0" d="m95.52493 473.563l67.98425 108.56824" fill-rule="nonzero"></path><path stroke="#000000" stroke-width="2.0" stroke-linejoin="round" stroke-linecap="butt" d="m95.52493 473.563l61.61557 98.397705" fill-rule="evenodd"></path><path fill="#000000" stroke="#000000" stroke-width="2.0" stroke-linecap="butt" d="m154.34067 573.7139l7.616791 5.93927l-2.0171204 -9.44574z" fill-rule="evenodd"></path><path fill="#000000" fill-opacity="0.0" d="m613.6142 656.6352l153.6535 -68.95935" fill-rule="nonzero"></path><path stroke="#000000" stroke-width="2.0" stroke-linejoin="round" stroke-linecap="butt" d="m613.6142 656.6352l142.7055 -64.0459" fill-rule="evenodd"></path><path fill="#000000" stroke="#000000" stroke-width="2.0" stroke-linecap="butt" d="m757.67236 595.60315l6.9278564 -6.7301636l-9.633118 0.7024536z" fill-rule="evenodd"></path><path fill="#cfe2f3" d="m551.85693 438.66928l0 0c0 -41.14737 35.366028 -74.50394 78.99213 -74.50394l0 0c20.950012 0 41.041992 7.849518 55.855896 21.821716c14.813904 13.9721985 23.13623 32.922546 23.13623 52.68222l0 0c0 41.1474 -35.365967 74.50394 -78.99213 74.50394l0 0c-43.6261 0 -78.99213 -33.356537 -78.99213 -74.50394z" fill-rule="nonzero"></path><path stroke="#000000" stroke-width="2.0" stroke-linejoin="round" stroke-linecap="butt" d="m551.85693 438.66928l0 0c0 -41.14737 35.366028 -74.50394 78.99213 -74.50394l0 0c20.950012 0 41.041992 7.849518 55.855896 21.821716c14.813904 13.9721985 23.13623 32.922546 23.13623 52.68222l0 0c0 41.1474 -35.365967 74.50394 -78.99213 74.50394l0 0c-43.6261 0 -78.99213 -33.356537 -78.99213 -74.50394z" fill-rule="nonzero"></path><path fill="#000000" d="m622.0053 444.94427l3.421875 -0.46875q0.125 3.28125 1.21875 4.5q1.09375 1.203125 3.03125 1.203125q1.421875 0 2.453125 -0.65625q1.046875 -0.65625 1.4375 -1.78125q0.390625 -1.125 0.390625 -3.578125l0 -19.734375l3.78125 0l0 19.515625q0 3.59375 -0.875 5.578125q-0.859375 1.96875 -2.75 3.0q-1.875 1.03125 -4.421875 1.03125q-3.765625 0 -5.765625 -2.15625q-2.0 -2.171875 -1.921875 -6.453125z" fill-rule="nonzero"></path><path fill="#000000" fill-opacity="0.0" d="m494.43307 286.12466l80.56015 99.8624" fill-rule="nonzero"></path><path stroke="#000000" stroke-width="2.0" stroke-linejoin="round" stroke-linecap="butt" d="m494.43307 286.12466l73.025665 90.52261" fill-rule="evenodd"></path><path fill="#000000" stroke="#000000" stroke-width="2.0" stroke-linecap="butt" d="m564.8876 378.72144l8.269897 4.9899597l-3.1276245 -9.138275z" fill-rule="evenodd"></path><path fill="#000000" fill-opacity="0.0" d="m755.11176 313.78067l58.633667 16.455566" fill-rule="nonzero"></path><path stroke="#000000" stroke-width="2.0" stroke-linejoin="round" stroke-linecap="butt" d="m755.1118 313.78067l47.079956 13.213013" fill-rule="evenodd"></path><path fill="#000000" stroke="#000000" stroke-width="2.0" stroke-linecap="butt" d="m801.29913 330.1743l9.631226 -0.7281189l-7.8459473 -5.6330566z" fill-rule="evenodd"></path><path fill="#000000" fill-opacity="0.0" d="m236.21785 95.797905l179.2231 115.82282" fill-rule="nonzero"></path><path stroke="#000000" stroke-width="2.0" stroke-linejoin="round" stroke-linecap="butt" d="m236.21785 95.7979l169.14452 109.30957" fill-rule="evenodd"></path><path fill="#000000" stroke="#000000" stroke-width="2.0" stroke-linecap="butt" d="m403.56937 207.88199l9.415924 2.1517944l-5.8298645 -7.700821z" fill-rule="evenodd"></path><path fill="#000000" fill-opacity="0.0" d="m213.0816 148.48015l23.893463 72.6839" fill-rule="nonzero"></path><path stroke="#000000" stroke-width="2.0" stroke-linejoin="round" stroke-linecap="butt" d="m213.08159 148.48013l20.145996 61.284073" fill-rule="evenodd"></path><path fill="#000000" stroke="#000000" stroke-width="2.0" stroke-linecap="butt" d="m230.08934 210.79584l5.9726562 7.590622l0.303833 -9.6539z" fill-rule="evenodd"></path><path fill="#000000" fill-opacity="0.0" d="m236.21785 95.797905l100.22966 -6.1338654" fill-rule="nonzero"></path><path stroke="#000000" stroke-width="2.0" stroke-linejoin="round" stroke-linecap="butt" d="m236.21785 95.7979l88.25206 -5.400856" fill-rule="evenodd"></path><path fill="#000000" stroke="#000000" stroke-width="2.0" stroke-linecap="butt" d="m324.6717 93.69434l8.857483 -3.8517075l-9.261047 -2.7428818z" fill-rule="evenodd"></path><path fill="#000000" fill-opacity="0.0" d="m471.2968 233.44243l96.651794 -97.23001" fill-rule="nonzero"></path><path stroke="#000000" stroke-width="2.0" stroke-linejoin="round" stroke-linecap="butt" d="m471.29684 233.44244l88.191864 -88.71947" fill-rule="evenodd"></path><path fill="#000000" stroke="#000000" stroke-width="2.0" stroke-linecap="butt" d="m561.83154 147.0519l4.055786 -8.765869l-8.741516 4.108017z" fill-rule="evenodd"></path><path fill="#000000" fill-opacity="0.0" d="m95.52493 324.5551l61.70079 -154.25328" fill-rule="nonzero"></path><path stroke="#000000" stroke-width="2.0" stroke-linejoin="round" stroke-linecap="butt" d="m95.52493 324.5551l57.24414 -143.11154" fill-rule="evenodd"></path><path fill="#000000" stroke="#000000" stroke-width="2.0" stroke-linecap="butt" d="m155.83626 182.67044l0.30360413 -9.653915l-6.4379883 7.20018z" fill-rule="evenodd"></path></g></svg>

